# xmcd
#
# Track frame offsets: 
#        150
#        9405
#        18545
#        29711
#        42812
#        55649
#        65043
#        76029
#        86538
#        98261
#        109014
#        122434
#        130747
#        141501
#        151564
#        167722
#        178200
#        190517
#        200476
#        207212
#
# Disc length: 2857 seconds
#
# Revision: 0
# Processed by: cddbd v1.5.2PL0 Copyright (c) Steve Scherf et al.
# Submitted via: ExactAudioCopy v1.0b1
#
DISCID=fa0b2714
DTITLE=Various Artist - Super Baby Cakes
DYEAR=2009
DGENRE=R&B
TTITLE0=Jimmy Radcliffe - Soulville
TTITLE1=Jimmy Radcliffe - More Than Ever Before
TTITLE2=Pat Lundy - Could That Someone Be You
TTITLE3=Jimmy Radcliffe - Things Are Changing
TTITLE4=Pat Lundy - I Want It Clearly Understood
TTITLE5=The Silent Glo - It's Hard Enough
TTITLE6=The Silent Glo - Hard Hard Way
TTITLE7=Jimmy Radcliffe - If It Wasn't for Love
TTITLE8=Jimmy Radcliffe - Love Put The Tears In My Eyes
TTITLE9=Barbara Jean English - If I Speak About Bobby
TTITLE10=Barbara Jean English - Taste Sour, Don't It
TTITLE11=The Relatives - A Change Of Heart (demo)
TTITLE12=Barbara Jean English - Everybody's Gonna Be There But Me
TTITLE13=Barbara Jean English - Your Reputation
TTITLE14=Irene Reid - As Late As The Hour May Be
TTITLE15=The Money Clips - For The Money
TTITLE16=Diamond Neval - Take A Look In The Mirror
TTITLE17=Diamond Neval - Don't Be Afraid
TTITLE18=Jimmy Radcliffe - It's Not Enough
TTITLE19=Jimmy Radcliffe - Baby Please
EXTD=
EXTT0=
EXTT1=
EXTT2=
EXTT3=
EXTT4=
EXTT5=
EXTT6=
EXTT7=
EXTT8=
EXTT9=
EXTT10=
EXTT11=
EXTT12=
EXTT13=
EXTT14=
EXTT15=
EXTT16=
EXTT17=
EXTT18=
EXTT19=
PLAYORDER=
